<svg width="1284" height="1271" viewBox="0 0 1284 1271" fill="none" xmlns="http://www.w3.org/2000/svg">
<path d="M1211.66 939.252L1203.62 910.775C1188.22 933.375 1166.78 944.676 1139.31 944.676C1116.87 944.676 1098.44 939.101 1084.04 927.951C1069.97 916.5 1062.94 900.529 1062.94 880.038C1062.94 867.381 1066.96 856.382 1075 847.04C1083.37 837.397 1094.76 830.617 1109.16 826.7C1127.92 821.878 1156.9 819.166 1196.09 818.564C1196.09 798.675 1195.08 788.128 1193.07 786.922C1191.4 785.717 1186.04 785.114 1176.99 785.114C1171.3 785.114 1163.43 785.416 1153.38 786.018C1137.3 786.621 1115.53 788.279 1088.06 790.991C1085.38 774.718 1083.37 757.24 1082.03 738.557C1099.78 735.242 1118.37 732.53 1137.8 730.421C1157.23 728.01 1174.65 726.804 1190.06 726.804C1216.86 726.804 1236.95 730.873 1250.35 739.009C1263.75 746.844 1272.46 757.24 1276.48 770.198C1280.5 783.156 1282.34 799.579 1282.01 819.468L1281.5 885.914L1283.01 939.252H1211.66ZM1168.45 894.05C1177.16 894.05 1186.37 892.543 1196.09 889.53V856.081H1192.07C1167.28 856.081 1153.55 857.286 1150.87 859.697C1149.19 861.204 1147.85 863.464 1146.85 866.477C1146.18 869.491 1145.84 872.353 1145.84 875.065C1145.84 882.298 1147.68 887.27 1151.37 889.982C1155.05 892.694 1160.75 894.05 1168.45 894.05Z" fill="#6366F1"/>
<path d="M1055.71 939.252H962.25L914.517 854.725C909.828 845.986 903.631 840.411 895.926 838V939.252H810.007V668.043L895.926 664.879V819.016C903.966 816.002 910.833 809.825 916.527 800.483L959.236 731.325L1053.19 730.873L1004.46 801.387C996.752 812.537 988.378 821.427 979.334 828.056C987.038 835.59 995.747 847.041 1005.46 862.409L1055.71 939.252Z" fill="#6366F1"/>
<path d="M761.273 744.433C764.287 747.748 766.465 756.035 767.805 769.294C769.479 782.553 770.317 802.743 770.317 829.864V939.252H684.397V830.768V812.235C684.397 802.592 683.56 796.565 681.885 794.155C679.205 791.141 673.008 789.635 663.294 789.635C658.605 789.635 655.087 789.785 652.743 790.087C643.363 790.388 633.649 792.347 623.6 795.963V939.252H537.681V731.325H607.522L617.068 766.13C641.186 739.913 669.994 726.804 703.49 726.804C715.549 726.804 726.771 728.311 737.155 731.325C747.874 734.338 755.913 738.708 761.273 744.433Z" fill="#6366F1"/>
<path d="M382.787 945.128C342.591 945.128 312.444 936.69 292.346 919.815C272.583 902.638 262.701 875.668 262.701 838.904C262.701 818.714 264.711 801.086 268.73 786.018C273.085 770.65 278.277 759.952 284.306 753.925C292.011 746.09 306.079 739.612 326.513 734.489C347.281 729.366 366.709 726.804 384.797 726.804C428.008 726.804 458.825 735.091 477.249 751.665C495.672 768.239 504.884 794.757 504.884 831.22C504.884 870.395 495.002 899.173 475.239 917.555C455.476 935.937 424.659 945.128 382.787 945.128ZM384.295 892.242C397.359 892.242 405.9 888.174 409.92 880.038C413.94 871.6 415.949 856.834 415.949 835.74C415.949 820.974 415.112 809.674 413.437 801.839C411.762 793.703 408.58 787.826 403.89 784.21C399.536 780.293 392.669 778.334 383.29 778.334C369.891 778.334 362.187 779.389 360.177 781.498C357.497 783.608 355.32 790.237 353.645 801.387C351.97 812.537 351.133 824.138 351.133 836.192C351.133 856.683 353.31 871.148 357.665 879.586C362.354 888.023 371.231 892.242 384.295 892.242Z" fill="#6366F1"/>
<path d="M171.337 939.252H80.8951V738.105H0V681.603H252.232V738.105H171.337V939.252Z" fill="#6366F1"/>
<path d="M952.418 1084.34C947.407 1084.34 943.062 1082.79 939.381 1079.69C935.751 1076.59 932.964 1072.09 931.021 1066.17C929.079 1060.18 928.107 1052.92 928.107 1044.4C928.107 1035.81 929.104 1028.48 931.098 1022.42C933.092 1016.36 935.904 1011.75 939.534 1008.58C943.164 1005.41 947.484 1003.83 952.494 1003.83C957.505 1003.83 961.799 1005.41 965.378 1008.58C969.008 1011.75 971.795 1016.33 973.737 1022.32C975.731 1028.3 976.728 1035.63 976.728 1044.3C976.728 1052.82 975.757 1060.07 973.814 1066.06C971.871 1071.98 969.059 1076.52 965.378 1079.69C961.748 1082.79 957.428 1084.34 952.418 1084.34ZM952.571 1076.63C958.093 1076.63 962.208 1074.02 964.918 1068.81C967.679 1063.53 969.059 1055.39 969.059 1044.4C969.059 1033.2 967.653 1024.92 964.841 1019.57C962.081 1014.22 957.965 1011.54 952.494 1011.54C946.973 1011.54 942.806 1014.25 939.994 1019.68C937.182 1025.03 935.776 1033.27 935.776 1044.4C935.776 1055.32 937.182 1063.42 939.994 1068.7C942.806 1073.99 946.998 1076.63 952.571 1076.63Z" fill="#CDCDDE"/>
<path d="M918.558 1081.28C918.711 1081.77 918.686 1082.23 918.481 1082.65C918.328 1083.08 918.072 1083.29 917.714 1083.29H912.116C911.553 1083.29 911.145 1082.86 910.889 1082.02L900.996 1048.73C900.74 1047.96 900.127 1047.57 899.155 1047.57H886.195C885.837 1047.57 885.581 1047.68 885.428 1047.89C885.326 1048.1 885.275 1048.38 885.275 1048.73V1081.6C885.275 1082.72 884.84 1083.29 883.971 1083.29H878.986C878.577 1083.29 878.296 1083.18 878.142 1082.97C877.989 1082.69 877.912 1082.34 877.912 1081.91V1006.36C877.912 1005.38 878.219 1004.88 878.833 1004.88H900.229C906.262 1004.88 910.94 1006.61 914.263 1010.06C917.638 1013.44 919.325 1018.48 919.325 1025.17C919.325 1029.19 918.762 1032.6 917.638 1035.42C916.513 1038.17 915.081 1040.39 913.343 1042.08C911.656 1043.7 909.917 1044.89 908.128 1045.67C907.719 1045.74 907.617 1046.09 907.821 1046.73L918.558 1081.28ZM898.082 1040.17C902.581 1040.17 905.955 1039.05 908.205 1036.79C910.505 1034.54 911.656 1030.98 911.656 1026.12C911.656 1021.4 910.633 1017.91 908.588 1015.66C906.594 1013.41 903.68 1012.28 899.846 1012.28H886.348C885.632 1012.28 885.275 1012.67 885.275 1013.44V1038.8C885.275 1039.72 885.505 1040.17 885.965 1040.17H898.082Z" fill="#CDCDDE"/>
<path d="M866.299 1027.71C866.299 1032.92 865.43 1037.22 863.692 1040.6C861.953 1043.98 859.576 1046.48 856.559 1048.1C853.543 1049.72 850.041 1050.53 846.053 1050.53H833.016C832.556 1050.53 832.326 1050.85 832.326 1051.48V1081.7C832.326 1082.76 831.942 1083.29 831.175 1083.29H825.96C825.602 1083.29 825.347 1083.18 825.193 1082.97C825.04 1082.76 824.963 1082.41 824.963 1081.91V1006.36C824.963 1005.38 825.27 1004.88 825.884 1004.88H845.209C849.248 1004.88 852.853 1005.66 856.023 1007.21C859.192 1008.76 861.698 1011.22 863.538 1014.6C865.379 1017.99 866.299 1022.35 866.299 1027.71ZM858.783 1027.39C858.783 1023.8 858.196 1020.91 857.02 1018.72C855.895 1016.54 854.284 1014.99 852.188 1014.08C850.143 1013.09 847.689 1012.6 844.826 1012.6H833.323C832.658 1012.6 832.326 1013.02 832.326 1013.86V1041.34C832.326 1042.32 832.556 1042.82 833.016 1042.82H845.363C849.402 1042.82 852.648 1041.58 855.102 1039.12C857.556 1036.65 858.783 1032.74 858.783 1027.39Z" fill="#CDCDDE"/>
<path d="M749.622 1083.29C749.315 1083.29 749.085 1083.15 748.931 1082.86C748.829 1082.51 748.829 1082.05 748.931 1081.49L768.794 1006.36C768.947 1005.87 769.126 1005.52 769.331 1005.31C769.535 1005.02 769.868 1004.88 770.328 1004.88H776.31C777.23 1004.88 777.818 1005.41 778.073 1006.47L797.706 1081.49C797.808 1081.91 797.783 1082.34 797.629 1082.76C797.527 1083.11 797.297 1083.29 796.939 1083.29H791.494C790.881 1083.29 790.472 1082.93 790.267 1082.23L784.975 1061.73C784.873 1061.45 784.771 1061.24 784.669 1061.1C784.566 1060.96 784.362 1060.89 784.055 1060.89H761.739C761.278 1060.89 760.972 1061.17 760.818 1061.73L755.373 1082.34C755.322 1082.62 755.194 1082.86 754.99 1083.08C754.837 1083.22 754.581 1083.29 754.223 1083.29H749.622ZM782.061 1052.85C782.675 1052.85 782.879 1052.4 782.675 1051.48L773.472 1016.72C773.268 1016.08 773.063 1015.77 772.859 1015.77C772.705 1015.77 772.552 1016.08 772.398 1016.72L763.042 1051.69C762.787 1052.47 762.94 1052.85 763.502 1052.85H782.061Z" fill="#CDCDDE"/>
<path d="M688.285 1006.36C688.285 1005.38 688.592 1004.88 689.206 1004.88H723.639C724.151 1004.88 724.406 1005.27 724.406 1006.04V1011.43C724.406 1012.28 724.074 1012.7 723.409 1012.7H696.645C695.98 1012.7 695.648 1013.12 695.648 1013.97V1038.7C695.648 1039.47 695.929 1039.86 696.491 1039.86H716.354C716.916 1039.86 717.197 1040.25 717.197 1041.02V1046.62C717.197 1046.9 717.146 1047.15 717.044 1047.36C716.942 1047.5 716.712 1047.57 716.354 1047.57H696.491C695.929 1047.57 695.648 1047.96 695.648 1048.73V1074.41C695.648 1075.12 695.903 1075.47 696.414 1075.47H724.56C725.122 1075.47 725.403 1075.82 725.403 1076.52V1082.12C725.403 1082.48 725.326 1082.76 725.173 1082.97C725.071 1083.18 724.866 1083.29 724.56 1083.29H689.359C688.643 1083.29 688.285 1082.79 688.285 1081.81V1006.36Z" fill="#CDCDDE"/>
<path d="M677.459 1081.81C677.612 1082.23 677.638 1082.58 677.536 1082.86C677.484 1083.15 677.305 1083.29 676.999 1083.29H670.71C669.994 1083.29 669.534 1082.97 669.33 1082.34L652.381 1043.34C652.075 1042.71 651.691 1042.75 651.231 1043.45L642.412 1057.29C642.054 1057.86 641.875 1058.49 641.875 1059.19V1081.7C641.875 1082.76 641.44 1083.29 640.571 1083.29H635.663C635.254 1083.29 634.947 1083.18 634.743 1082.97C634.589 1082.76 634.513 1082.41 634.513 1081.91V1006.15C634.513 1005.31 634.794 1004.88 635.356 1004.88H641.031C641.594 1004.88 641.875 1005.31 641.875 1006.15V1044.93C641.875 1045.35 641.926 1045.6 642.028 1045.67C642.131 1045.67 642.309 1045.49 642.565 1045.14L667.719 1005.83C667.924 1005.48 668.128 1005.23 668.333 1005.09C668.537 1004.95 668.844 1004.88 669.253 1004.88H674.545C675.005 1004.88 675.286 1005.06 675.388 1005.41C675.49 1005.69 675.414 1006.01 675.158 1006.36L657.289 1033.83C657.085 1034.26 657.085 1034.72 657.289 1035.21L677.459 1081.81Z" fill="#CDCDDE"/>
<path d="M618.712 1004.88C619.325 1004.88 619.632 1005.34 619.632 1006.26V1081.49C619.632 1082.19 619.53 1082.69 619.325 1082.97C619.121 1083.18 618.763 1083.29 618.252 1083.29H613.42C612.96 1083.29 612.653 1083.18 612.5 1082.97C612.347 1082.76 612.27 1082.37 612.27 1081.81V1006.36C612.27 1005.38 612.577 1004.88 613.19 1004.88H618.712Z" fill="#CDCDDE"/>
<path d="M566.136 1006.36C566.136 1005.38 566.443 1004.88 567.057 1004.88H572.578C573.192 1004.88 573.498 1005.34 573.498 1006.26V1074.41C573.498 1075.12 573.754 1075.47 574.265 1075.47H600.8C601.413 1075.47 601.72 1075.82 601.72 1076.52V1082.12C601.72 1082.48 601.643 1082.76 601.49 1082.97C601.337 1083.18 601.107 1083.29 600.8 1083.29H567.21C566.801 1083.29 566.52 1083.18 566.366 1082.97C566.213 1082.69 566.136 1082.3 566.136 1081.81V1006.36Z" fill="#CDCDDE"/>
<path d="M501.579 1006.36C501.579 1005.38 501.886 1004.88 502.5 1004.88H536.933C537.444 1004.88 537.7 1005.27 537.7 1006.04V1011.43C537.7 1012.28 537.368 1012.7 536.703 1012.7H509.939C509.274 1012.7 508.942 1013.12 508.942 1013.97V1038.7C508.942 1039.47 509.223 1039.86 509.785 1039.86H529.648C530.21 1039.86 530.491 1040.25 530.491 1041.02V1046.62C530.491 1046.9 530.44 1047.15 530.338 1047.36C530.236 1047.5 530.006 1047.57 529.648 1047.57H509.785C509.223 1047.57 508.942 1047.96 508.942 1048.73V1074.41C508.942 1075.12 509.197 1075.47 509.708 1075.47H537.854C538.416 1075.47 538.697 1075.82 538.697 1076.52V1082.12C538.697 1082.48 538.62 1082.76 538.467 1082.97C538.365 1083.18 538.16 1083.29 537.854 1083.29H502.653C501.937 1083.29 501.579 1082.79 501.579 1081.81V1006.36Z" fill="#CDCDDE"/>
<path d="M447.384 1004.88C447.742 1004.88 448.483 1004.88 449.608 1004.88C450.733 1004.88 451.96 1004.92 453.289 1004.99C454.619 1004.99 455.846 1004.99 456.97 1004.99C458.095 1004.99 458.888 1004.99 459.348 1004.99C466.454 1005.13 472.181 1006.68 476.526 1009.64C480.923 1012.6 484.118 1016.89 486.112 1022.53C488.157 1028.16 489.18 1035.14 489.18 1043.45C489.18 1052.26 488.081 1059.62 485.882 1065.53C483.684 1071.45 480.31 1075.89 475.759 1078.85C471.209 1081.81 465.483 1083.29 458.581 1083.29H447.308C446.592 1083.29 446.234 1082.72 446.234 1081.6V1006.36C446.234 1005.87 446.311 1005.52 446.464 1005.31C446.668 1005.02 446.975 1004.88 447.384 1004.88ZM454.363 1012.6C453.852 1012.6 453.596 1013.09 453.596 1014.08V1074.52C453.596 1075.29 453.903 1075.68 454.516 1075.68H457.431C463.106 1075.68 467.707 1074.66 471.235 1072.61C474.762 1070.5 477.344 1067.12 478.98 1062.47C480.667 1057.82 481.511 1051.66 481.511 1043.98C481.511 1035.95 480.642 1029.68 478.904 1025.17C477.216 1020.59 474.609 1017.35 471.081 1015.45C467.605 1013.55 463.182 1012.6 457.814 1012.6H454.363Z" fill="#CDCDDE"/>
<path d="M409.525 1084.34C404.515 1084.34 400.169 1082.79 396.488 1079.69C392.858 1076.59 390.071 1072.09 388.129 1066.17C386.186 1060.18 385.214 1052.92 385.214 1044.4C385.214 1035.81 386.211 1028.48 388.205 1022.42C390.199 1016.36 393.011 1011.75 396.641 1008.58C400.271 1005.41 404.591 1003.83 409.602 1003.83C414.612 1003.83 418.907 1005.41 422.485 1008.58C426.115 1011.75 428.902 1016.33 430.845 1022.32C432.839 1028.3 433.836 1035.63 433.836 1044.3C433.836 1052.82 432.864 1060.07 430.921 1066.06C428.979 1071.98 426.167 1076.52 422.485 1079.69C418.855 1082.79 414.535 1084.34 409.525 1084.34ZM409.678 1076.63C415.2 1076.63 419.316 1074.02 422.025 1068.81C424.786 1063.53 426.167 1055.39 426.167 1044.4C426.167 1033.2 424.761 1024.92 421.949 1019.57C419.188 1014.22 415.072 1011.54 409.602 1011.54C404.08 1011.54 399.913 1014.25 397.101 1019.68C394.289 1025.03 392.883 1033.27 392.883 1044.4C392.883 1055.32 394.289 1063.42 397.101 1068.7C399.913 1073.99 404.106 1076.63 409.678 1076.63Z" fill="#CDCDDE"/>
<path d="M354.996 1003.83C357.553 1003.83 360.007 1004.42 362.358 1005.62C364.761 1006.75 366.909 1008.3 368.8 1010.27C370.692 1012.24 372.251 1014.53 373.478 1017.14C374.705 1019.75 375.472 1022.53 375.779 1025.49C375.881 1026.12 375.881 1026.54 375.779 1026.76C375.728 1026.97 375.549 1027.07 375.242 1027.07L369.491 1027.71C369.235 1027.78 369.056 1027.71 368.954 1027.49C368.851 1027.28 368.775 1027 368.724 1026.65C368.008 1022.14 366.449 1018.51 364.046 1015.77C361.694 1012.95 358.754 1011.54 355.226 1011.54C349.909 1011.54 345.819 1014.25 342.956 1019.68C340.093 1025.1 338.661 1033.27 338.661 1044.19C338.661 1054.76 340.067 1062.75 342.879 1068.18C345.691 1073.6 349.935 1076.31 355.61 1076.31C359.24 1076.31 362.256 1075.11 364.659 1072.72C367.113 1070.32 369.082 1066.49 370.564 1061.2C370.718 1060.78 371.024 1060.64 371.484 1060.78L376.009 1062.26C376.163 1062.33 376.29 1062.47 376.393 1062.68C376.495 1062.89 376.495 1063.25 376.393 1063.74C375.984 1065.78 375.345 1067.79 374.475 1069.76C373.657 1071.73 372.635 1073.6 371.408 1075.36C370.181 1077.05 368.749 1078.6 367.113 1080.01C365.477 1081.35 363.662 1082.41 361.668 1083.18C359.725 1083.96 357.604 1084.34 355.303 1084.34C350.242 1084.34 345.87 1082.72 342.189 1079.48C338.559 1076.24 335.773 1071.59 333.83 1065.53C331.938 1059.48 330.992 1052.29 330.992 1043.98C330.992 1035.67 331.938 1028.52 333.83 1022.53C335.773 1016.47 338.534 1011.86 342.112 1008.69C345.742 1005.45 350.037 1003.83 354.996 1003.83Z" fill="#CDCDDE"/>
<line x1="2.25415" y1="1039.05" x2="295.77" y2="1039.05" stroke="#CDCDDE" stroke-width="11.7407"/>
<line x1="1017.82" y1="1039.05" x2="1281.99" y2="1039.05" stroke="#CDCDDE" stroke-width="11.7407"/>
<path d="M894.544 165.434V456.433L618.638 591.569L342.733 456.433V165.434L618.638 13.4053L894.544 165.434Z" stroke="#6366F1" stroke-width="23.4813"/>
<path d="M813.002 212.076V413.525L621.573 507.285L430.145 413.525V212.076L621.574 106.595L813.002 212.076Z" stroke="#6366F1" stroke-width="22.1947"/>
<line x1="354.123" y1="171.618" x2="894.193" y2="459.264" stroke="#6366F1" stroke-width="23.4813"/>
<line x1="894.104" y1="168.908" x2="354.034" y2="450.684" stroke="#6366F1" stroke-width="23.4813"/>
<line x1="752.602" y1="444.11" x2="536.198" y2="551.4" stroke="#6366F1" stroke-width="23.4813"/>
<line x1="465.597" y1="429.879" x2="700.41" y2="553.156" stroke="#6366F1" stroke-width="23.4813"/>
</svg>
